<svg xmlns="http://www.w3.org/2000/svg" xmlns:xlink="http://www.w3.org/1999/xlink" width="426.641" height="386.393" viewBox="0 0 426.641 386.393">
  <defs>
    <linearGradient id="linear-gradient" x1="0.695" y1="0.736" x2="0.31" y2="0.214" gradientUnits="objectBoundingBox">
      <stop offset="0" stop-color="#fec6a1"/>
      <stop offset="1" stop-color="#f7597b"/>
    </linearGradient>
    <linearGradient id="linear-gradient-2" x1="-8.567" y1="0.623" x2="-8.928" y2="0.09" xlink:href="#linear-gradient"/>
    <linearGradient id="linear-gradient-3" y1="0.5" x2="1" y2="0.5" gradientUnits="objectBoundingBox">
      <stop offset="0" stop-color="#3b4dd5"/>
      <stop offset="1" stop-color="#42b7f8"/>
    </linearGradient>
    <linearGradient id="linear-gradient-4" x1="0" y1="0.5" x2="1" y2="0.5" xlink:href="#linear-gradient"/>
    <linearGradient id="linear-gradient-7" x1="1" y1="0.5" x2="0" y2="0.5" xlink:href="#linear-gradient"/>
    <clipPath id="clip-path">
      <path id="Path_35" data-name="Path 35" d="M275.8,316.4l35.954-21.818,45.385,26.3-35.953,21.915Z" fill="none"/>
    </clipPath>
    <clipPath id="clip-path-2">
      <path id="Path_43" data-name="Path 43" d="M334.476,284.447l35.953-21.818,45.385,26.3-35.953,21.915Z" fill="none"/>
    </clipPath>
    <linearGradient id="linear-gradient-11" x1="0.43" y1="0.581" x2="0.656" y2="0.279" xlink:href="#linear-gradient-3"/>
    <linearGradient id="linear-gradient-12" y1="0.5" x2="1" y2="0.5" gradientUnits="objectBoundingBox">
      <stop offset="0" stop-color="#6365f8"/>
      <stop offset="1" stop-color="#e982f4"/>
    </linearGradient>
    <linearGradient id="linear-gradient-14" x1="1" y1="0.5" x2="0" y2="0.5" xlink:href="#linear-gradient-12"/>
    <linearGradient id="linear-gradient-16" x1="0.209" y1="0.987" x2="0.791" y2="0.013" xlink:href="#linear-gradient"/>
    <linearGradient id="linear-gradient-17" x1="0" y1="0.5" x2="1" y2="0.5" xlink:href="#linear-gradient"/>
    <linearGradient id="linear-gradient-19" y1="0.5" x2="1" y2="0.5" gradientUnits="objectBoundingBox">
      <stop offset="0" stop-color="#f1f2f2"/>
      <stop offset="1" stop-color="#58595b"/>
    </linearGradient>
    <linearGradient id="linear-gradient-20" x1="1" y1="0.5" x2="0" y2="0.5" gradientUnits="objectBoundingBox">
      <stop offset="0" stop-color="#f1f2f2"/>
      <stop offset="1" stop-color="#bcbec0"/>
    </linearGradient>
    <linearGradient id="linear-gradient-21" x1="0.603" y1="0.806" x2="0.397" y2="0.194" gradientUnits="objectBoundingBox">
      <stop offset="0" stop-color="#f1f2f2"/>
      <stop offset="1" stop-color="#d1d3d4"/>
    </linearGradient>
    <linearGradient id="linear-gradient-22" x1="-0.071" y1="0.935" x2="1.071" y2="0.065" xlink:href="#linear-gradient-20"/>
    <linearGradient id="linear-gradient-23" x1="0.5" y1="1" x2="0.5" y2="0" xlink:href="#linear-gradient-20"/>
    <linearGradient id="linear-gradient-24" x1="0.187" y1="0.5" x2="0.813" y2="0.5" xlink:href="#linear-gradient-3"/>
    <linearGradient id="linear-gradient-26" x1="-0.557" y1="0.823" x2="1.561" y2="0.172" xlink:href="#linear-gradient"/>
    <linearGradient id="linear-gradient-27" x1="-0.76" y1="0.812" x2="1.76" y2="0.188" xlink:href="#linear-gradient"/>
    <linearGradient id="linear-gradient-28" x1="-0.408" y1="0.845" x2="1.408" y2="0.155" xlink:href="#linear-gradient"/>
    <linearGradient id="linear-gradient-31" x1="0.187" y1="0.5" x2="0.813" y2="0.5" xlink:href="#linear-gradient-12"/>
    <linearGradient id="linear-gradient-32" x1="0" y1="0.5" x2="1" y2="0.5" xlink:href="#linear-gradient-12"/>
    <linearGradient id="linear-gradient-33" x1="0.5" y1="1" x2="0.5" gradientUnits="objectBoundingBox">
      <stop offset="0" stop-color="#2484c6" stop-opacity="0"/>
      <stop offset="0.161" stop-color="#2483c6" stop-opacity="0.012"/>
      <stop offset="0.293" stop-color="#2782c8" stop-opacity="0.055"/>
      <stop offset="0.414" stop-color="#2b80cc" stop-opacity="0.122"/>
      <stop offset="0.529" stop-color="#317dd1" stop-opacity="0.22"/>
      <stop offset="0.64" stop-color="#3979d7" stop-opacity="0.345"/>
      <stop offset="0.747" stop-color="#4374de" stop-opacity="0.498"/>
      <stop offset="0.851" stop-color="#4e6ee8" stop-opacity="0.682"/>
      <stop offset="0.951" stop-color="#5b68f2" stop-opacity="0.886"/>
      <stop offset="1" stop-color="#6365f8"/>
    </linearGradient>
    <linearGradient id="linear-gradient-34" x1="0.5" y1="0" x2="0.5" y2="1" xlink:href="#linear-gradient-12"/>
    <clipPath id="clip-path-3">
      <path id="Path_100" data-name="Path 100" d="M333.505,96.1l-.039,19.114c-.4,5.806-6.794,10.424-14.643,10.424s-14.24-4.618-14.643-10.424L304.141,96.1Z" fill="none"/>
    </clipPath>
    <linearGradient id="linear-gradient-35" x1="0.188" y1="0.083" x2="0.812" y2="0.917" xlink:href="#linear-gradient-12"/>
    <linearGradient id="linear-gradient-36" x1="0.5" y1="1" x2="0.5" y2="0" xlink:href="#linear-gradient-12"/>
    <linearGradient id="linear-gradient-37" x1="0.188" y1="0.917" x2="0.812" y2="0.083" xlink:href="#linear-gradient-12"/>
    <linearGradient id="linear-gradient-39" x1="0.06" y1="0.645" x2="0.94" y2="0.355" xlink:href="#linear-gradient"/>
    <linearGradient id="linear-gradient-40" x1="-4.592" y1="0.645" x2="-3.712" y2="0.355" xlink:href="#linear-gradient-3"/>
    <linearGradient id="linear-gradient-42" x1="0.211" y1="1" x2="0.789" gradientUnits="objectBoundingBox">
      <stop offset="0" stop-color="#7de8ec"/>
      <stop offset="1" stop-color="#1820ba"/>
    </linearGradient>
    <clipPath id="clip-path-4">
      <path id="Path_113" data-name="Path 113" d="M162.736,192.716c-3.9,3.492-6.828,7.918-10.053,12.046a11.521,11.521,0,0,0-1.993,3.174,9.5,9.5,0,0,0-.409,2.985,37.248,37.248,0,0,0,.953,8.978,1.957,1.957,0,0,0,.722,1.318,1.791,1.791,0,0,0,1.555-.065c3.488-1.4,5.5-5.044,8.562-7.221,2.267-1.611,5.112-2.416,7.034-4.426,4.26-4.454,1.969-12.312,5.517-17.351.655-.93,2.717-2.776,2.483-4.057-.267-1.467-3.208-.8-4.437-.576A20.911,20.911,0,0,0,162.736,192.716Z" fill="url(#linear-gradient)"/>
    </clipPath>
    <clipPath id="clip-path-5">
      <path id="Path_117" data-name="Path 117" d="M111.388,198.768c2.793,2.5,4.884,5.664,7.192,8.617a8.261,8.261,0,0,1,1.425,2.27,6.769,6.769,0,0,1,.292,2.136,26.634,26.634,0,0,1-.681,6.422,1.4,1.4,0,0,1-.517.943,1.275,1.275,0,0,1-1.112-.047c-2.5-1-3.934-3.608-6.125-5.165-1.622-1.152-3.657-1.729-5.032-3.166-3.048-3.186-1.408-8.808-3.947-12.413-.468-.665-1.943-1.985-1.776-2.9.191-1.049,2.295-.573,3.174-.412A14.959,14.959,0,0,1,111.388,198.768Z" fill="url(#linear-gradient-2)"/>
    </clipPath>
    <linearGradient id="linear-gradient-46" x1="0.416" y1="0.729" x2="0.75" y2="0.137" xlink:href="#linear-gradient"/>
    <linearGradient id="linear-gradient-47" x1="0.187" y1="1.045" x2="0.813" y2="0.173" xlink:href="#linear-gradient-42"/>
    <linearGradient id="linear-gradient-48" x1="0.787" y1="0.656" x2="1.792" y2="0.656" xlink:href="#linear-gradient"/>
    <clipPath id="clip-path-6">
      <path id="Path_124" data-name="Path 124" d="M127.053,215.1c-2.831,2.134-5.01,5.618-4.356,9.1a2.276,2.276,0,0,0,.7,1.408c1.058.839,2.517-.214,3.573-1.056a8.741,8.741,0,0,1,4.437-1.983,5.4,5.4,0,0,1,4.5,1.528c1.166,1.255,1.812,3.307,3.506,3.559a4.08,4.08,0,0,0,2.179-.5,12.7,12.7,0,0,0,4.921-3.189,6.693,6.693,0,0,0,1.326-5.712C145.8,209.674,132.354,211.1,127.053,215.1Z" fill="none"/>
    </clipPath>
    <linearGradient id="linear-gradient-50" x1="2.153" y1="1.403" x2="2.861" y2="0.432" xlink:href="#linear-gradient"/>
    <linearGradient id="linear-gradient-52" x1="0.187" y1="1.045" x2="0.813" y2="0.173" xlink:href="#linear-gradient-42"/>
    <linearGradient id="linear-gradient-54" x1="-2.183" y1="0.5" x2="-1.183" y2="0.5" xlink:href="#linear-gradient-3"/>
    <linearGradient id="linear-gradient-55" x1="-1.061" y1="1" x2="-1.061" y2="0" xlink:href="#linear-gradient"/>
    <clipPath id="clip-path-7">
      <path id="Path_139" data-name="Path 139" d="M133.324,369.768l56,32.357s5.943,3.213,5.238,8.259a3.548,3.548,0,0,1-5.238,2.566l-56-32.357a12.132,12.132,0,0,0,1.275-4.912A16.278,16.278,0,0,0,133.324,369.768Z" fill="none"/>
    </clipPath>
    <linearGradient id="linear-gradient-57" x1="0.5" y1="1" x2="0.5" y2="0" xlink:href="#linear-gradient-3"/>
    <clipPath id="clip-path-8">
      <path id="Path_148" data-name="Path 148" d="M262.581,343.012l-56,32.357s-5.943,3.213-5.239,8.259a3.549,3.549,0,0,0,5.239,2.566l56-32.357a12.15,12.15,0,0,1-1.276-4.913A16.29,16.29,0,0,1,262.581,343.012Z" fill="none"/>
    </clipPath>
  </defs>
  <g id="OBJECTS" transform="translate(-27.285 -32.436)">
    <g id="Group_80" data-name="Group 80">
      <ellipse id="Ellipse_1" data-name="Ellipse 1" cx="193.085" cy="138.754" rx="193.085" ry="138.754" transform="translate(58.74 127.142)" fill="#edf7fe"/>
      <path id="Path_1" data-name="Path 1" d="M392.361,337.1l51.031-29.467-2.639-1.524v-7.98l-65.608-38.15v.255c-52.885,13.31-59.171,32.155-59.172,32.158h0a27.852,27.852,0,0,0-3.068.228l.024.013c-8.727,1.048-17.778,5.462-25.861,10.783q-1.128.742-2.231,1.506c-1.469,1.018-2.9,2.058-4.285,3.1q-1.039.786-2.042,1.574c-1.338,1.049-2.624,2.1-3.853,3.128-3.685,3.093-6.843,6.029-9.248,8.374-.8.782-1.521,1.5-2.147,2.133-1.563,1.583-2.553,2.657-2.842,2.975l-.09-.052v8.375l-2.635,1.521v1.97l68.244,39.364,50.338-29.038a8.4,8.4,0,0,0,8.388,1.59c7.138-2.421,8.615-11.4,8.615-11.4l50.112-28.909v-2L392.361,337.1Z" fill="#38484f" opacity="0.2"/>
      <path id="Path_2" data-name="Path 2" d="M262.58,352.007h0v-1.044h0l-67.042-38.708-55.886,32.266s-7.173,2.923-6.246,9.847a4.25,4.25,0,0,0,2.268,3.14l66.347,38.252,0,0a4.088,4.088,0,0,0,4.669.379l55.887-32.266v-1.037h0a12.623,12.623,0,0,1-.717-1.776l.034-.019a.2.2,0,0,0,.074-.275.192.192,0,0,0-.226-.081,11.094,11.094,0,0,1-.4-2.208l.074-.043a.2.2,0,0,0,.074-.274.188.188,0,0,0-.176-.088c0-.05-.009-.1-.01-.149a12.261,12.261,0,0,1,.233-2.436l.15-.086a.2.2,0,0,0-.058-.368,17.667,17.667,0,0,1,.951-3.022Z" fill="#38484f" opacity="0.2"/>
      <ellipse id="Ellipse_2" data-name="Ellipse 2" cx="43.811" cy="19.893" rx="43.811" ry="19.893" transform="translate(58.74 215.863)" fill="#38484f" opacity="0.2"/>
      <ellipse id="Ellipse_3" data-name="Ellipse 3" cx="35.694" cy="26.577" rx="35.694" ry="26.577" transform="translate(373.224 196.855)" fill="#38484f" opacity="0.2"/>
      <path id="Path_3" data-name="Path 3" d="M259.582,366.653,203.7,334.388,136.654,373.1v1.044a17.717,17.717,0,0,1,.95,3.023.2.2,0,0,0-.131.092.2.2,0,0,0,.074.275l.15.087a12.33,12.33,0,0,1,.232,2.436c0,.051-.008.1-.01.149a.187.187,0,0,0-.176.087.2.2,0,0,0,.074.275l.074.043a11.108,11.108,0,0,1-.4,2.208.193.193,0,0,0-.226.08.2.2,0,0,0,.074.275l.034.02a12.556,12.556,0,0,1-.716,1.775h0V386l55.886,32.266a4.091,4.091,0,0,0,4.669-.379l0,0,66.347-38.251a4.248,4.248,0,0,0,2.269-3.14C266.755,369.576,259.582,366.653,259.582,366.653Z" fill="#38484f" opacity="0.2"/>
      <path id="Path_4" data-name="Path 4" d="M151.737,318.389c0,3.606-7.547,6.53-16.856,6.53s-16.857-2.924-16.857-6.53,7.547-6.53,16.857-6.53S151.737,314.782,151.737,318.389Z" fill="#38484f" opacity="0.2"/>
      <path id="Path_5" data-name="Path 5" d="M243.633,310.151l109.01-62.025a5.391,5.391,0,0,0,.1-9.314l-69.084-41.326a5.389,5.389,0,0,0-5.471-.032l-108.575,63.09a5.39,5.39,0,0,0-.019,9.31l68.648,40.262A5.39,5.39,0,0,0,243.633,310.151Z" fill="#38484f" opacity="0.2"/>
      <g id="Group_12" data-name="Group 12">
        <path id="Path_6" data-name="Path 6" d="M332.949,141.494l33.85,19.543,30.1-16.909s-20.827-7.005-29.536-12.78Z" fill="#474747" opacity="0.2"/>
        <path id="Path_7" data-name="Path 7" d="M332.949,141.494s25.841,15.846,34.7,16.107L398.13,140a225.134,225.134,0,0,1-33.882-16.578Z" fill="url(#linear-gradient-3)"/>
        <path id="Path_8" data-name="Path 8" d="M314.055,175.671,347.9,195.214,378,178.3s-20.826-7-29.535-12.78Z" fill="#474747" opacity="0.2"/>
        <path id="Path_9" data-name="Path 9" d="M314.055,175.671s25.841,15.846,34.7,16.107l30.483-17.6A225.118,225.118,0,0,1,345.353,157.6Z" fill="url(#linear-gradient-4)"/>
        <g id="Group_2" data-name="Group 2">
          <g id="Group_1" data-name="Group 1">
            <path id="Path_10" data-name="Path 10" d="M345.876,142.166c1.746-2.477,4.383-2.387,6.879-3.343,1.306-.5,2.156-1.539,3.393-2.1a25.978,25.978,0,0,0,3.166-1.181,30.806,30.806,0,0,0,2.434-2.235,22.546,22.546,0,0,1,5.95-3.015c.534-.2.047-.468-.321-.331a20.672,20.672,0,0,0-6.283,3.216,21.409,21.409,0,0,1-5.665,3.263c-2.428,1.067-.928.949-5.358,2.438-.5.166-1.117.058-1.591.294a8.078,8.078,0,0,0-3.363,2.981c-.211.3.606.232.759.015Z" fill="#fff"/>
          </g>
        </g>
        <g id="Group_4" data-name="Group 4">
          <g id="Group_3" data-name="Group 3">
            <path id="Path_11" data-name="Path 11" d="M351.961,145.539c1.746-2.476,4.382-2.387,6.879-3.342,1.3-.5,2.156-1.539,3.392-2.1a26.083,26.083,0,0,0,3.166-1.181,30.472,30.472,0,0,0,2.434-2.235,22.534,22.534,0,0,1,5.95-3.016c.535-.2.048-.467-.321-.33a20.656,20.656,0,0,0-6.282,3.216,21.415,21.415,0,0,1-5.666,3.263c-2.428,1.067-.927.948-5.357,2.437-.5.167-1.118.058-1.592.294a8.079,8.079,0,0,0-3.362,2.982c-.211.3.606.232.759.014Z" fill="#fff"/>
          </g>
        </g>
        <g id="Group_6" data-name="Group 6">
          <g id="Group_5" data-name="Group 5">
            <path id="Path_12" data-name="Path 12" d="M358.618,149.011c1.746-2.477,4.382-2.387,6.879-3.343,1.3-.5,2.155-1.539,3.392-2.1a25.918,25.918,0,0,0,3.166-1.181,30.644,30.644,0,0,0,2.434-2.235,22.531,22.531,0,0,1,5.95-3.015c.534-.2.048-.468-.321-.33a20.642,20.642,0,0,0-6.282,3.215,21.432,21.432,0,0,1-5.666,3.263c-2.428,1.067-.927.949-5.357,2.438-.5.166-1.118.058-1.592.294A8.078,8.078,0,0,0,357.858,149c-.21.3.607.232.76.015Z" fill="#fff"/>
          </g>
        </g>
        <g id="Group_11" data-name="Group 11">
          <g id="Group_10" data-name="Group 10">
            <g id="Group_7" data-name="Group 7">
              <path id="Path_13" data-name="Path 13" d="M328.486,177.291c1.745-2.476,4.382-2.387,6.879-3.342,1.305-.5,2.155-1.54,3.392-2.1a25.978,25.978,0,0,0,3.166-1.181,30.807,30.807,0,0,0,2.434-2.234,22.519,22.519,0,0,1,5.95-3.016c.534-.2.048-.467-.321-.33A20.646,20.646,0,0,0,343.7,168.3a21.382,21.382,0,0,1-5.665,3.263c-2.428,1.067-.928.949-5.358,2.438-.5.167-1.117.058-1.591.294a8.092,8.092,0,0,0-3.363,2.981c-.211.3.606.232.76.015Z" fill="#fff"/>
            </g>
            <g id="Group_8" data-name="Group 8">
              <path id="Path_14" data-name="Path 14" d="M334.57,180.665c1.746-2.477,4.382-2.387,6.879-3.343,1.3-.5,2.156-1.539,3.392-2.1a25.914,25.914,0,0,0,3.166-1.181,30.467,30.467,0,0,0,2.434-2.235,22.522,22.522,0,0,1,5.951-3.015c.534-.2.047-.468-.322-.331a20.678,20.678,0,0,0-6.282,3.216,21.415,21.415,0,0,1-5.666,3.263c-2.428,1.067-.927.949-5.357,2.437-.5.167-1.118.059-1.592.3a8.069,8.069,0,0,0-3.362,2.981c-.211.3.606.232.759.015Z" fill="#fff"/>
            </g>
            <g id="Group_9" data-name="Group 9">
              <path id="Path_15" data-name="Path 15" d="M341.227,184.136c1.746-2.477,4.382-2.387,6.879-3.343,1.305-.5,2.155-1.539,3.392-2.1a25.916,25.916,0,0,0,3.166-1.181,30.454,30.454,0,0,0,2.434-2.235,22.561,22.561,0,0,1,5.95-3.015c.534-.2.048-.468-.321-.33a20.641,20.641,0,0,0-6.282,3.215,21.4,21.4,0,0,1-5.666,3.263c-2.428,1.067-.927.949-5.357,2.438-.5.167-1.118.058-1.592.294a8.072,8.072,0,0,0-3.362,2.982c-.211.3.606.231.759.014Z" fill="#fff"/>
            </g>
          </g>
        </g>
      </g>
      <g id="Group_33" data-name="Group 33">
        <path id="Path_16" data-name="Path 16" d="M374.88,340.96l4.143,2.717,4.323.4,4.708-2.307,4.144-6.147.246-3.3-.533-3.624-14.853,6.786Z" fill="url(#linear-gradient-4)"/>
        <path id="Path_17" data-name="Path 17" d="M260.33,320.963s29.931-33.251,55.643-33.916c0,0,6.282-18.847,59.172-32.158v9.5L325.939,292.8s-10.16.706-16.4,9.47L260.33,330.68Z" fill="#fff"/>
        <path id="Path_18" data-name="Path 18" d="M260.33,320.963v3.486l5.543,3.031,43.664-25.209c6.229-8.746,16.356-9.467,16.4-9.47l-9.962-5.754C290.261,287.712,260.33,320.963,260.33,320.963Z" fill="#f7f7f7"/>
        <path id="Path_19" data-name="Path 19" d="M440.753,302.288v-9.5l-65.608-38.151v9.775Z" fill="#fbdc7f"/>
        <path id="Path_20" data-name="Path 20" d="M376.133,341.118s10.838,4.609,13.628-10.027l-4.66-.411-8.274,3.222-3.6,5.01,1.656,2.048Z" fill="#303030" opacity="0.2"/>
        <path id="Path_21" data-name="Path 21" d="M375.148,262.887,257.7,330.709l68.244,39.4,50.195-28.992-1.632-1.156,5.141-7.406,7.232-2.745,3.266.845,1.714,1.392,51.537-29.76Z" fill="url(#linear-gradient-4)"/>
        <path id="Path_22" data-name="Path 22" d="M375.145,254.889l-59.172,32.159,65.608,37.9,59.172-32.159Z" fill="#fff"/>
        <path id="Path_23" data-name="Path 23" d="M381.581,324.943l-65.608-37.9L260.33,320.963l65.608,37.9Z" fill="#f7f7f7"/>
        <path id="Path_24" data-name="Path 24" d="M325.939,358.859s29.93-33.251,55.642-33.916c0,0,6.282-18.847,59.172-32.159v9.5l-50,28.866a21.372,21.372,0,0,0-15.61,9.013l-49.206,28.409Z" fill="url(#linear-gradient-7)"/>
        <path id="Path_25" data-name="Path 25" d="M325.939,370.11v1.933l50.338-29.038a8.4,8.4,0,0,0,8.388,1.59c7.138-2.421,8.615-11.4,8.615-11.4l50.112-28.908v-2l-51.537,29.759s.023,7.7-6.985,11.006c-5.124,2.416-8.737-1.935-8.737-1.935Z" fill="url(#linear-gradient-4)"/>
        <path id="Path_26" data-name="Path 26" d="M257.7,330.709v1.97l68.244,39.364V370.11Z" fill="url(#linear-gradient-4)"/>
        <path id="Path_27" data-name="Path 27" d="M325.939,368.576v-9.717L260.33,320.813V330.7Z" fill="url(#linear-gradient-7)"/>
        <g id="Group_22" data-name="Group 22">
          <g id="Group_21" data-name="Group 21" clip-path="url(#clip-path)">
            <g id="Group_20" data-name="Group 20">
              <g id="Group_13" data-name="Group 13">
                <path id="Path_28" data-name="Path 28" d="M279.487,322.7l-1.7-1.637c.8-.827,19.746-20.328,41.121-26.962l.7,2.256C298.807,302.808,279.678,322.5,279.487,322.7Z" fill="#ccc"/>
              </g>
              <g id="Group_14" data-name="Group 14">
                <path id="Path_29" data-name="Path 29" d="M285.995,326.479l-1.7-1.638c.8-.827,19.747-20.327,41.122-26.961l.7,2.256C305.315,306.591,286.185,326.281,285.995,326.479Z" fill="#ccc"/>
              </g>
              <g id="Group_15" data-name="Group 15">
                <path id="Path_30" data-name="Path 30" d="M292.54,330.307l-1.7-1.638c.8-.827,19.747-20.327,41.122-26.961l.7,2.256C311.861,310.418,292.731,330.108,292.54,330.307Z" fill="#ccc"/>
              </g>
              <g id="Group_16" data-name="Group 16">
                <path id="Path_31" data-name="Path 31" d="M299.048,334.089l-1.7-1.637c.8-.827,19.747-20.328,41.121-26.961l.7,2.255C318.369,314.2,299.239,333.891,299.048,334.089Z" fill="#ccc"/>
              </g>
              <g id="Group_17" data-name="Group 17">
                <path id="Path_32" data-name="Path 32" d="M304.965,337.478l-1.7-1.638c.8-.827,19.746-20.327,41.121-26.961l.7,2.256C324.285,317.59,305.156,337.279,304.965,337.478Z" fill="#ccc"/>
              </g>
              <g id="Group_18" data-name="Group 18">
                <path id="Path_33" data-name="Path 33" d="M311.473,341.261l-1.7-1.638c.8-.827,19.746-20.328,41.121-26.961l.7,2.255C330.793,321.372,311.663,341.062,311.473,341.261Z" fill="#ccc"/>
              </g>
              <g id="Group_19" data-name="Group 19">
                <path id="Path_34" data-name="Path 34" d="M318.018,345.088l-1.7-1.637c.8-.827,19.747-20.328,41.122-26.962l.7,2.256C337.339,325.2,318.209,344.89,318.018,345.088Z" fill="#ccc"/>
              </g>
            </g>
          </g>
        </g>
        <g id="Group_32" data-name="Group 32">
          <g id="Group_31" data-name="Group 31" clip-path="url(#clip-path-2)">
            <g id="Group_30" data-name="Group 30">
              <g id="Group_23" data-name="Group 23">
                <path id="Path_36" data-name="Path 36" d="M336.005,287.907l-1.491-1.831c.89-.724,22.056-17.794,44.075-21.8l.422,2.324C357.585,270.5,336.218,287.734,336.005,287.907Z" fill="#ccc"/>
              </g>
              <g id="Group_24" data-name="Group 24">
                <path id="Path_37" data-name="Path 37" d="M342.436,291.756l-1.491-1.831c.89-.725,22.056-17.795,44.076-21.8l.422,2.324C364.016,274.346,342.649,291.582,342.436,291.756Z" fill="#ccc"/>
              </g>
              <g id="Group_25" data-name="Group 25">
                <path id="Path_38" data-name="Path 38" d="M349.2,295.509l-1.491-1.831c.891-.725,22.057-17.8,44.076-21.8l.423,2.323C370.783,278.1,349.416,295.335,349.2,295.509Z" fill="#ccc"/>
              </g>
              <g id="Group_26" data-name="Group 26">
                <path id="Path_39" data-name="Path 39" d="M354.751,299.587l-1.491-1.831c.891-.725,22.056-17.8,44.076-21.8l.422,2.324C376.331,282.177,354.965,299.413,354.751,299.587Z" fill="#ccc"/>
              </g>
              <g id="Group_27" data-name="Group 27">
                <path id="Path_40" data-name="Path 40" d="M361.5,302.688l-1.491-1.831c.89-.725,22.057-17.795,44.076-21.8l.422,2.323C383.081,285.278,361.714,302.514,361.5,302.688Z" fill="#ccc"/>
              </g>
              <g id="Group_28" data-name="Group 28">
                <path id="Path_41" data-name="Path 41" d="M367.961,306.442l-1.491-1.831c.89-.724,22.056-17.795,44.075-21.8l.423,2.324C389.541,289.032,368.174,306.269,367.961,306.442Z" fill="#ccc"/>
              </g>
              <g id="Group_29" data-name="Group 29">
                <path id="Path_42" data-name="Path 42" d="M374.6,310.365l-1.491-1.831c.891-.724,22.057-17.795,44.076-21.8l.423,2.324C396.181,292.955,374.814,310.191,374.6,310.365Z" fill="#ccc"/>
              </g>
            </g>
          </g>
        </g>
        <path id="Path_44" data-name="Path 44" d="M315.973,287.047l65.608,37.9v11.846l-1.568-.967-1.459,2.432V325.189L312.9,287.275A27.852,27.852,0,0,1,315.973,287.047Z" fill="url(#linear-gradient-11)"/>
      </g>
      <g id="Group_35" data-name="Group 35">
        <path id="Path_45" data-name="Path 45" d="M51.873,179.009v47.429c0,7.543,22.471,25,50.19,25s50.19-17.457,50.19-25V179.009Z" fill="url(#linear-gradient-12)"/>
        <path id="Path_46" data-name="Path 46" d="M51.873,168.091v32.056c8.682,10.717,29.266,28.214,56.985,28.214s43.4-20.67,43.4-28.214V168.091Z" fill="#303030" opacity="0.1"/>
        <path id="Path_47" data-name="Path 47" d="M27.285,176.108l74.778,43.173,74.778-43.173-74.778-43.173Z" fill="url(#linear-gradient-12)"/>
        <path id="Path_48" data-name="Path 48" d="M27.285,176.108v4.5l74.778,43.173,74.778-43.173v-4.5l-74.778,43.173Z" fill="url(#linear-gradient-14)"/>
        <g id="Group_34" data-name="Group 34">
          <path id="Path_49" data-name="Path 49" d="M65.483,231.386H63.33V197.54a1.076,1.076,0,0,1,.524-.924l37.657-22.51,1.1,1.849-37.132,22.2Z" fill="url(#linear-gradient-4)"/>
        </g>
        <ellipse id="Ellipse_4" data-name="Ellipse 4" cx="8.388" cy="5.012" rx="8.388" ry="5.012" transform="translate(93.675 171.095)" fill="#303030" opacity="0.2"/>
        <ellipse id="Ellipse_5" data-name="Ellipse 5" cx="8.388" cy="5.012" rx="8.388" ry="5.012" transform="translate(93.675 170.018)" fill="url(#linear-gradient-16)"/>
        <path id="Path_50" data-name="Path 50" d="M68.649,215.656a4.2,4.2,0,1,1-4.2-4.2A4.2,4.2,0,0,1,68.649,215.656Z" fill="url(#linear-gradient-17)"/>
        <rect id="Rectangle_2" data-name="Rectangle 2" width="12.096" height="21.455" rx="6.048" transform="translate(58.402 223.409)" fill="url(#linear-gradient-4)"/>
        <path id="Path_51" data-name="Path 51" d="M61.889,215.656a4.2,4.2,0,0,1,3.38-4.116,4.2,4.2,0,1,0,0,8.232A4.2,4.2,0,0,1,61.889,215.656Z" fill="#303030" opacity="0.1"/>
        <path id="Path_52" data-name="Path 52" d="M60.252,238.816v-9.359a6.064,6.064,0,0,1,5.123-5.969,6,6,0,0,0-.925-.079,6.066,6.066,0,0,0-6.048,6.048v9.359a6.066,6.066,0,0,0,6.048,6.048,5.881,5.881,0,0,0,.925-.079A6.063,6.063,0,0,1,60.252,238.816Z" fill="#303030" opacity="0.1"/>
      </g>
      <g id="Group_39" data-name="Group 39">
        <path id="Path_53" data-name="Path 53" d="M295.334,263.537l.718,6.249,14.221-8.044-2.658-5.243Z" fill="url(#linear-gradient-19)"/>
        <path id="Path_54" data-name="Path 54" d="M274.728,103.608l4.833-9.807-6.251-3.6h0a2.835,2.835,0,0,0-2.874-.008L159.053,154.5a7.155,7.155,0,0,0-3.578,6.2v82.713a2.83,2.83,0,0,0,1.462,2.491v0l6.292,3.618L178.1,235.307l96.628-55.789Z" fill="url(#linear-gradient-20)"/>
        <path id="Path_55" data-name="Path 55" d="M244.924,295.867l111.382-64.306a2.863,2.863,0,0,0,0-4.958l-71.631-41.356a7.156,7.156,0,0,0-7.155,0L166.137,249.554a2.862,2.862,0,0,0,0,4.957l71.632,41.356A7.156,7.156,0,0,0,244.924,295.867Z" fill="url(#linear-gradient-21)"/>
        <path id="Path_56" data-name="Path 56" d="M166.137,249.554,277.52,185.247a7.156,7.156,0,0,0,3.577-6.2V96.338a2.862,2.862,0,0,0-4.293-2.479L165.422,158.166a7.154,7.154,0,0,0-3.578,6.2v82.713A2.862,2.862,0,0,0,166.137,249.554Z" fill="url(#linear-gradient-22)"/>
        <path id="Path_57" data-name="Path 57" d="M171.8,239.545l100.475-57.957a6.1,6.1,0,0,0,3.052-5.285V105.759a2.441,2.441,0,0,0-3.662-2.114L171.19,161.6a6.1,6.1,0,0,0-3.051,5.285v70.544A2.441,2.441,0,0,0,171.8,239.545Z" fill="#fff"/>
        <path id="Path_58" data-name="Path 58" d="M287.768,266l21.571-12.455a1.263,1.263,0,0,0,0-2.188l-15.427-8.907a2.527,2.527,0,0,0-2.562.022L270.2,255.154a1.263,1.263,0,0,0,.018,2.177L285.241,266A2.529,2.529,0,0,0,287.768,266Z" fill="#a3a3a3"/>
        <g id="Group_37" data-name="Group 37">
          <g id="Group_36" data-name="Group 36">
            <path id="Path_59" data-name="Path 59" d="M197.7,252.01l-5.436-3.139a.477.477,0,0,1,0-.826l5.436-3.139a.953.953,0,0,1,.955,0l5.436,3.139a.477.477,0,0,1,0,.826l-5.436,3.139A.958.958,0,0,1,197.7,252.01Z" fill="#a3a3a3"/>
            <path id="Path_60" data-name="Path 60" d="M207.627,246.28l-5.436-3.139a.478.478,0,0,1,0-.827l5.436-3.138a.953.953,0,0,1,.955,0l5.436,3.138a.478.478,0,0,1,0,.827l-5.436,3.139A.958.958,0,0,1,207.627,246.28Z" fill="#a3a3a3"/>
            <path id="Path_61" data-name="Path 61" d="M217.546,240.521l-5.436-3.139a.478.478,0,0,1,0-.827l5.436-3.138a.953.953,0,0,1,.955,0l5.436,3.138a.478.478,0,0,1,0,.827l-5.436,3.139A.958.958,0,0,1,217.546,240.521Z" fill="#a3a3a3"/>
            <path id="Path_62" data-name="Path 62" d="M227.476,234.79l-5.436-3.138a.477.477,0,0,1,0-.827l5.436-3.138a.951.951,0,0,1,.954,0l5.437,3.138a.478.478,0,0,1,0,.827l-5.437,3.138A.951.951,0,0,1,227.476,234.79Z" fill="#a3a3a3"/>
            <path id="Path_63" data-name="Path 63" d="M237.471,229.034l-5.437-3.138a.478.478,0,0,1,0-.827l5.437-3.138a.951.951,0,0,1,.954,0l5.436,3.138a.477.477,0,0,1,0,.827l-5.436,3.138A.951.951,0,0,1,237.471,229.034Z" fill="#a3a3a3"/>
            <path id="Path_64" data-name="Path 64" d="M247.4,223.3l-5.436-3.138a.478.478,0,0,1,0-.827L247.4,216.2a.958.958,0,0,1,.955,0l5.436,3.139a.478.478,0,0,1,0,.827l-5.436,3.138A.953.953,0,0,1,247.4,223.3Z" fill="#a3a3a3"/>
            <path id="Path_65" data-name="Path 65" d="M257.319,217.545l-5.436-3.138a.478.478,0,0,1,0-.827l5.436-3.139a.958.958,0,0,1,.955,0l5.436,3.139a.478.478,0,0,1,0,.827l-5.436,3.138A.953.953,0,0,1,257.319,217.545Z" fill="#a3a3a3"/>
            <path id="Path_66" data-name="Path 66" d="M267.249,211.815l-5.436-3.138a.478.478,0,0,1,0-.827l5.436-3.139a.958.958,0,0,1,.955,0l5.436,3.139a.478.478,0,0,1,0,.827l-5.436,3.138A.953.953,0,0,1,267.249,211.815Z" fill="#a3a3a3"/>
            <path id="Path_67" data-name="Path 67" d="M277.33,206.1l-5.436-3.139a.478.478,0,0,1,0-.827L277.33,199a.953.953,0,0,1,.955,0l5.436,3.139a.477.477,0,0,1,0,.826l-5.436,3.139A.958.958,0,0,1,277.33,206.1Z" fill="#a3a3a3"/>
          </g>
          <path id="Path_68" data-name="Path 68" d="M208.734,258.408l-5.436-3.139a.478.478,0,0,1,0-.827l5.436-3.138a.953.953,0,0,1,.955,0l5.436,3.138a.478.478,0,0,1,0,.827l-5.436,3.139A.958.958,0,0,1,208.734,258.408Z" fill="#a3a3a3"/>
          <path id="Path_69" data-name="Path 69" d="M218.664,252.677l-5.436-3.138a.477.477,0,0,1,0-.827l5.436-3.138a.951.951,0,0,1,.954,0l5.436,3.138a.477.477,0,0,1,0,.827l-5.436,3.138A.951.951,0,0,1,218.664,252.677Z" fill="#a3a3a3"/>
          <path id="Path_70" data-name="Path 70" d="M228.583,246.918l-5.436-3.138a.477.477,0,0,1,0-.827l5.436-3.138a.951.951,0,0,1,.954,0l5.436,3.138a.477.477,0,0,1,0,.827l-5.436,3.138A.951.951,0,0,1,228.583,246.918Z" fill="#a3a3a3"/>
          <path id="Path_71" data-name="Path 71" d="M238.512,241.188l-5.436-3.138a.478.478,0,0,1,0-.827l5.436-3.139a.958.958,0,0,1,.955,0l5.436,3.139a.478.478,0,0,1,0,.827l-5.436,3.138A.953.953,0,0,1,238.512,241.188Z" fill="#a3a3a3"/>
          <path id="Path_72" data-name="Path 72" d="M248.507,235.432l-5.436-3.138a.478.478,0,0,1,0-.827l5.436-3.139a.958.958,0,0,1,.955,0l5.436,3.139a.478.478,0,0,1,0,.827l-5.436,3.138A.953.953,0,0,1,248.507,235.432Z" fill="#a3a3a3"/>
          <path id="Path_73" data-name="Path 73" d="M258.437,229.7,253,226.564a.478.478,0,0,1,0-.827l5.436-3.139a.958.958,0,0,1,.955,0l5.436,3.139a.478.478,0,0,1,0,.827l-5.436,3.138A.953.953,0,0,1,258.437,229.7Z" fill="#a3a3a3"/>
          <path id="Path_74" data-name="Path 74" d="M268.356,223.943,262.92,220.8a.478.478,0,0,1,0-.827l5.436-3.139a.956.956,0,0,1,.954,0l5.437,3.139a.478.478,0,0,1,0,.827l-5.437,3.138A.951.951,0,0,1,268.356,223.943Z" fill="#a3a3a3"/>
          <path id="Path_75" data-name="Path 75" d="M220.159,264.963l-5.436-3.138a.477.477,0,0,1,0-.827l15.365-8.869a.958.958,0,0,1,.955,0l5.436,3.139a.478.478,0,0,1,0,.827l-15.366,8.868A.951.951,0,0,1,220.159,264.963Z" fill="#a3a3a3"/>
          <path id="Path_76" data-name="Path 76" d="M240.007,253.474l-5.436-3.138a.478.478,0,0,1,0-.827l5.436-3.139a.958.958,0,0,1,.955,0l5.436,3.139a.478.478,0,0,1,0,.827l-5.436,3.138A.953.953,0,0,1,240.007,253.474Z" fill="#a3a3a3"/>
          <path id="Path_77" data-name="Path 77" d="M249.937,247.744,244.5,244.6a.477.477,0,0,1,0-.826l5.436-3.139a.958.958,0,0,1,.955,0l5.436,3.139a.477.477,0,0,1,0,.826l-5.436,3.139A.958.958,0,0,1,249.937,247.744Z" fill="#a3a3a3"/>
          <path id="Path_78" data-name="Path 78" d="M259.932,241.988,254.5,238.85a.478.478,0,0,1,0-.827l5.436-3.139a.958.958,0,0,1,.955,0l5.436,3.139a.478.478,0,0,1,0,.827l-5.436,3.138A.953.953,0,0,1,259.932,241.988Z" fill="#a3a3a3"/>
          <path id="Path_79" data-name="Path 79" d="M269.862,236.258l-5.437-3.139a.478.478,0,0,1,0-.827l5.437-3.138a.951.951,0,0,1,.954,0l5.436,3.138a.477.477,0,0,1,0,.827l-5.436,3.139A.956.956,0,0,1,269.862,236.258Z" fill="#a3a3a3"/>
          <path id="Path_80" data-name="Path 80" d="M279.781,230.5l-5.437-3.139a.477.477,0,0,1,0-.826l5.437-3.139a.956.956,0,0,1,.954,0l5.436,3.139a.476.476,0,0,1,0,.826l-5.436,3.139A.956.956,0,0,1,279.781,230.5Z" fill="#a3a3a3"/>
          <path id="Path_81" data-name="Path 81" d="M289.71,224.769l-5.436-3.139a.478.478,0,0,1,0-.827l5.436-3.138a.953.953,0,0,1,.955,0L296.1,220.8a.478.478,0,0,1,0,.827l-5.436,3.139A.958.958,0,0,1,289.71,224.769Z" fill="#a3a3a3"/>
          <path id="Path_82" data-name="Path 82" d="M306.182,215.088l-16.861-9.694a.953.953,0,0,0-.955,0l-15.517,8.854a.477.477,0,0,0,0,.826l5.437,3.139a.956.956,0,0,0,.954,0l9.581-5.467,10.97,6.307a.953.953,0,0,0,.955,0l5.436-3.138A.478.478,0,0,0,306.182,215.088Z" fill="#a3a3a3"/>
          <path id="Path_83" data-name="Path 83" d="M231.2,271.361l-5.436-3.138a.478.478,0,0,1,0-.827l5.436-3.139a.958.958,0,0,1,.955,0l5.436,3.139a.478.478,0,0,1,0,.827l-5.436,3.138A.953.953,0,0,1,231.2,271.361Z" fill="#a3a3a3"/>
          <path id="Path_84" data-name="Path 84" d="M241.125,265.631l-5.436-3.139a.477.477,0,0,1,0-.826l5.436-3.139a.953.953,0,0,1,.955,0l5.436,3.139a.477.477,0,0,1,0,.826l-5.436,3.139A.958.958,0,0,1,241.125,265.631Z" fill="#a3a3a3"/>
          <path id="Path_85" data-name="Path 85" d="M251.044,259.872l-5.436-3.139a.477.477,0,0,1,0-.826l35.29-20.355a.953.953,0,0,1,.955,0l5.436,3.138a.478.478,0,0,1,0,.827L252,259.872A.958.958,0,0,1,251.044,259.872Z" fill="#a3a3a3"/>
          <path id="Path_86" data-name="Path 86" d="M290.817,236.9l-5.436-3.139a.478.478,0,0,1,0-.827l5.436-3.138a.953.953,0,0,1,.955,0l5.436,3.138a.478.478,0,0,1,0,.827l-5.436,3.139A.958.958,0,0,1,290.817,236.9Z" fill="#a3a3a3"/>
          <path id="Path_87" data-name="Path 87" d="M300.747,231.166l-5.436-3.138a.478.478,0,0,1,0-.827l5.436-3.138a.951.951,0,0,1,.954,0l5.437,3.138a.478.478,0,0,1,0,.827l-5.437,3.138A.951.951,0,0,1,300.747,231.166Z" fill="#a3a3a3"/>
          <path id="Path_88" data-name="Path 88" d="M310.828,225.451l-5.436-3.138a.477.477,0,0,1,0-.827l5.436-3.139a.956.956,0,0,1,.954,0l5.437,3.139a.478.478,0,0,1,0,.827l-5.437,3.138A.951.951,0,0,1,310.828,225.451Z" fill="#a3a3a3"/>
        </g>
        <path id="Path_89" data-name="Path 89" d="M356.306,231.561,304.8,261.3a4.341,4.341,0,0,1,.077.783c0,1.843-1.121,3.336-2.505,3.336a2.426,2.426,0,0,1-2.092-1.509l-55.359,31.961a7.156,7.156,0,0,1-7.155,0l-71.632-41.356a2.836,2.836,0,0,1-1.431-2.479v7.32a2.836,2.836,0,0,0,1.431,2.479l71.632,41.356a7.151,7.151,0,0,0,7.155,0l111.382-64.306a2.822,2.822,0,0,0,1.4-2.73l.031,0v-7.065A2.836,2.836,0,0,1,356.306,231.561Z" fill="url(#linear-gradient-23)"/>
        <ellipse id="Ellipse_6" data-name="Ellipse 6" cx="22.347" cy="13.815" rx="22.347" ry="13.815" transform="translate(232.796 176.08) rotate(-82.733)" fill="url(#linear-gradient-24)"/>
        <path id="Path_90" data-name="Path 90" d="M262.545,145.314c-1.529-8.372-6-14.547-11.973-15.309l-3.177,24.92Z" fill="#2d2d2d" opacity="0.3"/>
        <path id="Path_91" data-name="Path 91" d="M264.477,146.048c-1.528-8.372-5.995-14.547-11.972-15.309l-3.178,24.921Z" fill="url(#linear-gradient-4)"/>
        <path id="Path_92" data-name="Path 92" d="M181.888,216.072l12.5-7.219v-34.2l-12.733,7.088Z" fill="url(#linear-gradient-26)"/>
        <path id="Path_93" data-name="Path 93" d="M198.223,206.792V163.475l12.5-7.219v43.317Z" fill="url(#linear-gradient-27)"/>
        <path id="Path_94" data-name="Path 94" d="M214.479,197.342V171.606l12.5-7.22.011,25.742Z" fill="url(#linear-gradient-28)"/>
        <g id="Group_38" data-name="Group 38">
          <path id="Path_95" data-name="Path 95" d="M188.711,178.941,187.635,178,204.3,158.964l16.755,8.3-.634,1.281-15.768-7.815Z" fill="url(#linear-gradient-12)"/>
        </g>
        <path id="Path_96" data-name="Path 96" d="M189.914,178.692c-.2,1.555-1.139,2.716-2.1,2.593s-1.58-1.482-1.382-3.037,1.139-2.717,2.1-2.594S190.112,177.136,189.914,178.692Z" fill="url(#linear-gradient-12)"/>
        <ellipse id="Ellipse_7" data-name="Ellipse 7" cx="2.839" cy="1.755" rx="2.839" ry="1.755" transform="translate(202.375 162.443) rotate(-82.734)" fill="url(#linear-gradient-31)"/>
        <path id="Path_97" data-name="Path 97" d="M222.477,168.13c-.2,1.556-1.138,2.717-2.1,2.594s-1.58-1.482-1.382-3.038,1.139-2.716,2.1-2.593S222.675,166.575,222.477,168.13Z" fill="url(#linear-gradient-32)"/>
      </g>
      <g id="Group_46" data-name="Group 46">
        <path id="Path_98" data-name="Path 98" d="M318.462,110.585l82.661,125.681s-80.342,49.068-164.6,0Z" fill="url(#linear-gradient-33)"/>
        <path id="Path_99" data-name="Path 99" d="M333.505,96.1l-.039,19.114c-.4,5.806-6.794,10.424-14.643,10.424s-14.24-4.618-14.643-10.424L304.141,96.1Z" fill="url(#linear-gradient-34)"/>
        <g id="Group_42" data-name="Group 42" opacity="0.15">
          <g id="Group_41" data-name="Group 41" clip-path="url(#clip-path-3)">
            <g id="Group_40" data-name="Group 40">
              <rect id="Rectangle_3" data-name="Rectangle 3" width="3.034" height="36.319" transform="translate(314.215 140.008) rotate(180)" fill="#3d3d3d"/>
              <rect id="Rectangle_4" data-name="Rectangle 4" width="1.517" height="36.319" transform="translate(309.25 138.2) rotate(180)" fill="#3d3d3d"/>
            </g>
          </g>
        </g>
        <ellipse id="Ellipse_8" data-name="Ellipse 8" cx="14.682" cy="11.001" rx="14.682" ry="11.001" transform="translate(304.141 85.103)" fill="url(#linear-gradient-35)"/>
        <g id="Group_43" data-name="Group 43">
          <rect id="Rectangle_5" data-name="Rectangle 5" width="70.841" height="4.427" transform="translate(370.871 215.028)" fill="#c9a961"/>
          <ellipse id="Ellipse_9" data-name="Ellipse 9" cx="35.42" cy="26.54" rx="35.42" ry="26.54" transform="translate(370.871 192.916)" fill="url(#linear-gradient-36)"/>
          <ellipse id="Ellipse_10" data-name="Ellipse 10" cx="35.42" cy="26.54" rx="35.42" ry="26.54" transform="translate(370.871 188.488)" fill="url(#linear-gradient-37)"/>
        </g>
        <g id="Group_44" data-name="Group 44" opacity="0.15">
          <path id="Path_101" data-name="Path 101" d="M379.21,232.135l-1.692-1.626,28.506-16.458L407.151,216Z" fill="#3d3d3d"/>
        </g>
        <g id="Group_45" data-name="Group 45">
          <path id="Path_102" data-name="Path 102" d="M406.291,216.718a1.69,1.69,0,0,1-1.69-1.69V53.356A17.506,17.506,0,0,0,378.343,38.2L333.4,64.142a25.844,25.844,0,0,0-12.886,22.316l0,7.72a1.69,1.69,0,0,1-1.69,1.689h0a1.69,1.69,0,0,1-1.689-1.691l0-7.719a29.229,29.229,0,0,1,14.576-25.241l44.941-25.947a20.885,20.885,0,0,1,31.328,18.087V215.028A1.69,1.69,0,0,1,406.291,216.718Z" fill="url(#linear-gradient-36)"/>
        </g>
      </g>
      <g id="Group_47" data-name="Group 47">
        <path id="Path_103" data-name="Path 103" d="M110.9,90.3c-6.357-3.871-13.645-3.505-16.278.819s.387,10.967,6.745,14.838,13.645,3.5,16.278-.819S117.262,94.173,110.9,90.3Zm3.127,10.867c-1.724,2.832-6.5,3.072-10.661.536s-6.142-6.886-4.418-9.718,6.5-3.072,10.662-.537S115.756,98.337,114.031,101.169Z" fill="#f7597b"/>
        <path id="Path_104" data-name="Path 104" d="M111.568,88.718c-6.357-3.871-13.645-3.5-16.278.82s.387,10.966,6.745,14.838,13.645,3.5,16.278-.82S117.926,92.59,111.568,88.718Zm2.463,12.451c-1.724,2.832-6.5,3.072-10.661.536s-6.142-6.886-4.418-9.718,6.5-3.072,10.662-.537S115.756,98.337,114.031,101.169Z" fill="url(#linear-gradient-39)"/>
        <path id="Path_105" data-name="Path 105" d="M109.614,91.45c-4.127-2.512-8.848-2.295-10.61.465,2.234-1.456,5.973-1.215,9.322.824,4.164,2.536,6.142,6.887,4.417,9.718-.015.026-.035.047-.051.072a4.272,4.272,0,0,0,1.339-1.36C115.756,98.337,113.778,93.986,109.614,91.45Z" fill="#f7597b"/>
      </g>
      <g id="Group_48" data-name="Group 48">
        <path id="Path_106" data-name="Path 106" d="M431.039,156.645c2.513,4.128,9.471,4.478,15.54.782s8.953-10.038,6.439-14.165-9.471-4.478-15.54-.782S428.525,152.517,431.039,156.645Zm7.671-13.069c3.975-2.42,8.532-2.191,10.178.512s-.242,6.858-4.217,9.278-8.532,2.192-10.179-.512S434.734,146,438.71,143.576Z" fill="#181aba"/>
        <path id="Path_107" data-name="Path 107" d="M430.4,155.134c2.513,4.127,9.471,4.477,15.54.782s8.953-10.038,6.439-14.166-9.471-4.477-15.54-.782S427.891,151.006,430.4,155.134Zm8.3-11.558c3.975-2.42,8.532-2.191,10.178.512s-.242,6.858-4.217,9.278-8.532,2.192-10.179-.512S434.734,146,438.71,143.576Z" fill="url(#linear-gradient-40)"/>
        <path id="Path_108" data-name="Path 108" d="M438.71,143.576c3.939-2.4,8.446-2.191,10.129.444-2.133-1.39-5.7-1.16-8.9.787-3.976,2.42-5.864,6.574-4.218,9.277.015.025.034.045.049.069a4.089,4.089,0,0,1-1.279-1.3C432.846,150.151,434.734,146,438.71,143.576Z" fill="#181aba"/>
      </g>
      <g id="Group_60" data-name="Group 60">
        <path id="Path_109" data-name="Path 109" d="M110.455,274.232l9.013,41.185c0,3.056,6.9,6.5,15.413,6.5s15.412-3.446,15.412-6.5l9.014-41.185Z" fill="url(#linear-gradient-3)"/>
        <ellipse id="Ellipse_11" data-name="Ellipse 11" cx="24.426" cy="14.117" rx="24.426" ry="14.117" transform="translate(110.455 260.115)" fill="#fff"/>
        <ellipse id="Ellipse_12" data-name="Ellipse 12" cx="19.702" cy="11.387" rx="19.702" ry="11.387" transform="translate(115.178 262.845)" fill="url(#linear-gradient-42)"/>
        <g id="Group_59" data-name="Group 59">
          <g id="Group_49" data-name="Group 49">
            <path id="Path_110" data-name="Path 110" d="M152.255,219.2a223.719,223.719,0,0,0-7.593,28.38c-1.956,9.8-3.915,19.525-10.124,27.648-.33.431.4.853.73.426,5.81-7.6,7.969-16.6,9.809-25.827a238.853,238.853,0,0,1,7.993-30.4c.175-.516-.64-.737-.815-.224Z" fill="#f7597b"/>
          </g>
          <g id="Group_51" data-name="Group 51">
            <path id="Path_111" data-name="Path 111" d="M162.736,192.716c-3.9,3.492-6.828,7.918-10.053,12.046a11.521,11.521,0,0,0-1.993,3.174,9.5,9.5,0,0,0-.409,2.985,37.248,37.248,0,0,0,.953,8.978,1.957,1.957,0,0,0,.722,1.318,1.791,1.791,0,0,0,1.555-.065c3.488-1.4,5.5-5.044,8.562-7.221,2.267-1.611,5.112-2.416,7.034-4.426,4.26-4.454,1.969-12.312,5.517-17.351.655-.93,2.717-2.776,2.483-4.057-.267-1.467-3.208-.8-4.437-.576A20.911,20.911,0,0,0,162.736,192.716Z" fill="url(#linear-gradient)"/>
            <g id="Group_50" data-name="Group 50" clip-path="url(#clip-path-4)">
              <path id="Path_112" data-name="Path 112" d="M171.131,193.794a27.42,27.42,0,0,0-7.068,5.335c-2.235,2.345-4.043,5.073-6.319,7.378s-5.2,4.226-8.441,4.32a1.852,1.852,0,0,1-1.147-.247,2.078,2.078,0,0,1-.6-1.654c-.277-5.5-.466-11.161,1.407-16.336a21.387,21.387,0,0,1,20.679-14.1,13.763,13.763,0,0,1,7.048,1.909,8.073,8.073,0,0,1,3.849,6,5.941,5.941,0,0,1-2.476,5.266c-1.044.7-1.979.517-3.161.722A13.044,13.044,0,0,0,171.131,193.794Z" fill="url(#linear-gradient-4)"/>
            </g>
          </g>
          <g id="Group_52" data-name="Group 52">
            <path id="Path_114" data-name="Path 114" d="M118.413,217.073a223.472,223.472,0,0,1,7.593,28.38c1.956,9.8,3.916,19.526,10.124,27.648.331.432-.4.853-.729.427-5.811-7.6-7.97-16.6-9.81-25.828a238.84,238.84,0,0,0-7.993-30.4c-.175-.516.641-.738.815-.225Z" fill="#f7597b"/>
          </g>
          <g id="Group_54" data-name="Group 54">
            <path id="Path_115" data-name="Path 115" d="M111.388,198.768c2.793,2.5,4.884,5.664,7.192,8.617a8.261,8.261,0,0,1,1.425,2.27,6.769,6.769,0,0,1,.292,2.136,26.634,26.634,0,0,1-.681,6.422,1.4,1.4,0,0,1-.517.943,1.275,1.275,0,0,1-1.112-.047c-2.5-1-3.934-3.608-6.125-5.165-1.622-1.152-3.657-1.729-5.032-3.166-3.048-3.186-1.408-8.808-3.947-12.413-.468-.665-1.943-1.985-1.776-2.9.191-1.049,2.295-.573,3.174-.412A14.959,14.959,0,0,1,111.388,198.768Z" fill="url(#linear-gradient-2)"/>
            <g id="Group_53" data-name="Group 53" clip-path="url(#clip-path-5)">
              <path id="Path_116" data-name="Path 116" d="M105.383,199.538a19.6,19.6,0,0,1,5.055,3.817c1.6,1.677,2.893,3.629,4.521,5.278a9.226,9.226,0,0,0,6.038,3.09,1.322,1.322,0,0,0,.821-.176,1.491,1.491,0,0,0,.427-1.184c.2-3.932.333-7.983-1.007-11.685a15.3,15.3,0,0,0-14.793-10.085,9.837,9.837,0,0,0-5.042,1.366,5.771,5.771,0,0,0-2.753,4.291,4.251,4.251,0,0,0,1.771,3.767,4.967,4.967,0,0,0,2.261.516A9.376,9.376,0,0,1,105.383,199.538Z" fill="url(#linear-gradient-46)"/>
            </g>
          </g>
          <path id="Path_118" data-name="Path 118" d="M135.34,273.938c0,1.111-1.256,1.336-2.806,1.336s-2.807-.225-2.807-1.336a2.809,2.809,0,0,1,5.613,0Z" fill="url(#linear-gradient-47)"/>
          <g id="Group_55" data-name="Group 55">
            <path id="Path_119" data-name="Path 119" d="M114.7,232.711c12.6,8.766,18.282,28.6,19.789,43.09.055.536.9.542.845,0-1.539-14.793-7.323-34.854-20.208-43.82-.447-.312-.87.421-.426.73Z" fill="#f7597b"/>
          </g>
          <path id="Path_120" data-name="Path 120" d="M71.9,242.872a2.133,2.133,0,0,0,.79.838,2.076,2.076,0,0,0,1.323.112c2.462-.445,4.217-2.544,6.23-4.029a19.536,19.536,0,0,1,10.5-3.352,96.051,96.051,0,0,1,11.166.416c2.719.155,5.557.177,8.029-.968,1.181-.547,2.293-1.363,3.591-1.46a5.666,5.666,0,0,0,1.814-.171c1.37-.58,1.2-2.552.79-3.983a17.236,17.236,0,0,0-1.706-4.4c-2.452-3.968-7.616-5.272-12.278-5.407a14.77,14.77,0,0,0-6.811,1.084,27.67,27.67,0,0,0-3.987,2.686c-4.1,2.929-8.876,3.419-13.177,5.725S68.754,237.628,71.9,242.872Z" fill="url(#linear-gradient-48)"/>
          <g id="Group_56" data-name="Group 56">
            <path id="Path_121" data-name="Path 121" d="M138.648,226.542c-.447,8.975-.815,17.958-1.366,26.927-.247,4.035-.554,8.071-1.065,12.082-.427,3.35-1.575,6.864-.957,10.249.1.534.912.308.815-.225-.659-3.608.81-8.325,1.224-12.031.449-4.019.718-8.056.945-12.093.464-8.3.835-16.607,1.249-24.909.027-.544-.818-.543-.845,0Z" fill="#f7597b"/>
          </g>
          <path id="Path_122" data-name="Path 122" d="M127.053,215.1c-2.831,2.134-5.01,5.618-4.356,9.1a2.276,2.276,0,0,0,.7,1.408c1.058.839,2.517-.214,3.573-1.056a8.741,8.741,0,0,1,4.437-1.983,5.4,5.4,0,0,1,4.5,1.528c1.166,1.255,1.812,3.307,3.506,3.559a4.08,4.08,0,0,0,2.179-.5,12.7,12.7,0,0,0,4.921-3.189,6.693,6.693,0,0,0,1.326-5.712C145.8,209.674,132.354,211.1,127.053,215.1Z" fill="url(#linear-gradient-7)"/>
          <g id="Group_58" data-name="Group 58">
            <g id="Group_57" data-name="Group 57" clip-path="url(#clip-path-6)">
              <path id="Path_123" data-name="Path 123" d="M143.275,218.774c-2.813.723-5.183,2.644-7.954,3.514a5.805,5.805,0,0,0-2.838,1.34,2.871,2.871,0,0,0-.509,2.526,5.362,5.362,0,0,0,1.33,2.289,7.579,7.579,0,0,0,3.874,2.354,12.1,12.1,0,0,0,3.211.135,11.7,11.7,0,0,0,2.56-.319,11.945,11.945,0,0,0,2.754-1.3l2.679-1.553a3.878,3.878,0,0,0,1.248-.974,3.406,3.406,0,0,0,.524-1.59c.2-1.513.509-4.823-.789-5.965C148,218.035,144.858,218.368,143.275,218.774Z" fill="url(#linear-gradient-50)"/>
            </g>
          </g>
          <path id="Path_125" data-name="Path 125" d="M137.269,275.688c0,.866-.979,1.041-2.188,1.041s-2.188-.175-2.188-1.041a2.19,2.19,0,0,1,4.376,0Z" fill="url(#linear-gradient-47)"/>
          <path id="Path_126" data-name="Path 126" d="M141.212,273.708c0,.733-.829.881-1.851.881s-1.852-.148-1.852-.881a1.853,1.853,0,0,1,3.7,0Z" fill="url(#linear-gradient-52)"/>
        </g>
      </g>
      <g id="Group_61" data-name="Group 61">
        <path id="Path_127" data-name="Path 127" d="M85.723,330.328l-4.52-6.322,1.512-1.059a1.854,1.854,0,0,0,.163-.232l1.607-2.286L81.6,318.3l-.406.207a4.044,4.044,0,0,0-2.881.03l-2.488,1.375-4.735-4.055-3.111-3L66,315.591c-.034.041-.061.083-.09.124l-.015.022h0c-.793,1.182.555,2.8.555,2.8L70.03,322.3l-1.345.47-1.77,2.518c-.444.528-.882,1.607.608,3.273A3.771,3.771,0,0,0,71.9,329.7l3.254-2,4.2,4.355s2.886,2.692,4.592.788a1.894,1.894,0,0,0,.249-.354Z" fill="#6365f8"/>
        <path id="Path_128" data-name="Path 128" d="M72.421,320.429l-4.2-4.4s-1.9-2.273.111-3.4c1.772-.994,3.794,1.346,3.794,1.346l4.154,4.155,3.805-2.1a3.69,3.69,0,0,1,3.954.709c1.933,2.013.451,3.7.451,3.7l-3.5,2.453,4.1,4.305s1.957,1.668.637,3.141c-1.707,1.9-4.592-.789-4.592-.789l-4.2-4.355-3.254,2a3.773,3.773,0,0,1-4.38-1.147c-2.211-2.473-.175-3.659-.175-3.659Z" fill="url(#linear-gradient-12)"/>
      </g>
      <g id="Group_62" data-name="Group 62">
        <path id="Path_129" data-name="Path 129" d="M286.532,408.365l4.519-6.322-1.512-1.058a2.079,2.079,0,0,1-.163-.233l-1.606-2.286,2.888-2.124.406.207a4.039,4.039,0,0,1,2.88.031l2.488,1.374,4.735-4.055,3.111-3,1.979,2.727a1.3,1.3,0,0,1,.09.124l.016.021h0c.793,1.182-.554,2.8-.554,2.8l-3.584,3.754,1.346.47,1.769,2.518c.445.529.883,1.608-.607,3.273a3.771,3.771,0,0,1-4.38,1.147l-3.254-2-4.2,4.355s-2.885,2.692-4.591.788a1.9,1.9,0,0,1-.25-.354Z" fill="#1820ba"/>
        <path id="Path_130" data-name="Path 130" d="M299.833,398.466l4.2-4.4s1.9-2.273-.11-3.4c-1.772-.993-3.794,1.347-3.794,1.347l-4.155,4.154-3.8-2.1a3.69,3.69,0,0,0-3.954.709c-1.933,2.014-.451,3.7-.451,3.7l3.5,2.453-4.1,4.3s-1.958,1.668-.637,3.141c1.706,1.9,4.591-.789,4.591-.789l4.205-4.355,3.254,2a3.773,3.773,0,0,0,4.38-1.147c2.212-2.473.175-3.659.175-3.659Z" fill="url(#linear-gradient-54)"/>
      </g>
      <g id="Group_79" data-name="Group 79">
        <g id="Group_70" data-name="Group 70">
          <path id="Path_131" data-name="Path 131" d="M133.324,368.724l51.9,29.967,54.3-33.158-39.162-22.61V330.016l55.886,32.266s7.173,2.924,6.246,9.847a4.248,4.248,0,0,1-2.269,3.141l-66.347,38.251,0,0a4.089,4.089,0,0,1-4.669.38l-55.886-32.266v-1.038a9.894,9.894,0,0,0,1.585-4.766,18.692,18.692,0,0,0-1.585-6.059Z" fill="url(#linear-gradient-55)"/>
          <path id="Path_132" data-name="Path 132" d="M133.324,369.768l56,32.357s5.943,3.213,5.238,8.259a3.548,3.548,0,0,1-5.238,2.566l-56-32.357a12.132,12.132,0,0,0,1.275-4.912A16.278,16.278,0,0,0,133.324,369.768Z" fill="#fff"/>
          <path id="Path_133" data-name="Path 133" d="M133.324,368.724l67.042-38.708,55.886,32.266L189.21,400.99Z" fill="url(#linear-gradient-4)"/>
          <path id="Path_134" data-name="Path 134" d="M182.977,354.5l20.493-11.832,30.739,17.747L213.7,372.257Z" fill="#fff"/>
          <g id="Group_69" data-name="Group 69">
            <g id="Group_68" data-name="Group 68" clip-path="url(#clip-path-7)">
              <g id="Group_67" data-name="Group 67">
                <path id="Path_135" data-name="Path 135" d="M189.326,402.125l-56-21.531,55.054,32.22L190.5,413.9l2.5-.379,2.461-2.684.069-4.28-4.383-4.25Z" fill="#eaeaea"/>
                <g id="Group_66" data-name="Group 66">
                  <g id="Group_63" data-name="Group 63">
                    <path id="Path_136" data-name="Path 136" d="M194.191,407.684a.192.192,0,0,1-.1-.027l-59.873-34.5a.2.2,0,0,1,.2-.349l59.873,34.5a.2.2,0,0,1-.1.375Z" fill="#c6c6c6"/>
                  </g>
                  <g id="Group_64" data-name="Group 64">
                    <path id="Path_137" data-name="Path 137" d="M194.4,410.661a.2.2,0,0,1-.1-.027l-59.811-34.442a.2.2,0,1,1,.2-.349L194.5,410.285a.2.2,0,0,1,.074.275A.2.2,0,0,1,194.4,410.661Z" fill="#c6c6c6"/>
                  </g>
                  <g id="Group_65" data-name="Group 65">
                    <path id="Path_138" data-name="Path 138" d="M193.13,412.814a.2.2,0,0,1-.1-.027L134.006,378.8a.2.2,0,0,1,.2-.349l59.024,33.989a.2.2,0,0,1-.1.376Z" fill="#c6c6c6"/>
                  </g>
                </g>
              </g>
            </g>
          </g>
        </g>
        <g id="Group_78" data-name="Group 78">
          <path id="Path_140" data-name="Path 140" d="M262.581,341.968l-51.9,29.967-54.3-33.158,39.162-22.611V303.26l-55.886,32.266s-7.173,2.923-6.246,9.847a4.253,4.253,0,0,0,2.268,3.141l66.347,38.251,0,0a4.088,4.088,0,0,0,4.669.379l55.887-32.266v-1.037A9.9,9.9,0,0,1,261,349.07a18.691,18.691,0,0,1,1.585-6.058Z" fill="url(#linear-gradient-57)"/>
          <path id="Path_141" data-name="Path 141" d="M262.581,343.012l-56,32.357s-5.943,3.213-5.239,8.259a3.549,3.549,0,0,0,5.239,2.566l56-32.357a12.15,12.15,0,0,1-1.276-4.913A16.29,16.29,0,0,1,262.581,343.012Z" fill="#fff"/>
          <path id="Path_142" data-name="Path 142" d="M262.581,341.968,195.539,303.26l-55.886,32.266,67.042,38.708Z" fill="url(#linear-gradient-3)"/>
          <path id="Path_143" data-name="Path 143" d="M212.928,327.744l-20.492-11.831L161.7,333.659l20.51,11.842Z" fill="#fff"/>
          <g id="Group_77" data-name="Group 77">
            <g id="Group_76" data-name="Group 76" clip-path="url(#clip-path-8)">
              <g id="Group_75" data-name="Group 75">
                <path id="Path_144" data-name="Path 144" d="M206.579,375.369l56-21.532-55.054,32.22-2.119,1.086-2.5-.379-2.461-2.684-.069-4.28,4.383-4.25Z" fill="#eaeaea"/>
                <g id="Group_74" data-name="Group 74">
                  <g id="Group_71" data-name="Group 71">
                    <path id="Path_145" data-name="Path 145" d="M201.714,380.928a.2.2,0,0,0,.1-.027l59.873-34.5a.2.2,0,1,0-.2-.349l-59.874,34.5a.2.2,0,0,0-.073.275A.2.2,0,0,0,201.714,380.928Z" fill="#c6c6c6"/>
                  </g>
                  <g id="Group_72" data-name="Group 72">
                    <path id="Path_146" data-name="Path 146" d="M201.506,383.9a.2.2,0,0,0,.1-.027l59.811-34.442a.2.2,0,1,0-.2-.349L201.4,383.529a.2.2,0,0,0-.074.275A.205.205,0,0,0,201.506,383.9Z" fill="#c6c6c6"/>
                  </g>
                  <g id="Group_73" data-name="Group 73">
                    <path id="Path_147" data-name="Path 147" d="M202.774,386.058a.2.2,0,0,0,.1-.027L261.9,352.042a.2.2,0,0,0-.2-.349l-59.023,33.989a.2.2,0,0,0,.1.376Z" fill="#c6c6c6"/>
                  </g>
                </g>
              </g>
            </g>
          </g>
        </g>
        <path id="Path_149" data-name="Path 149" d="M216.248,378.079l-8.335,4.812,8.335,4.812.04-5.045,8.3.233Z" fill="#00377c"/>
        <path id="Path_150" data-name="Path 150" d="M179.587,399.078l8.335,4.812-8.335,4.812-.04-5.045-8.3.233Z" fill="#00377c"/>
      </g>
    </g>
  </g>
</svg>
